<?xml version="1.0" encoding="UTF-8" standalone="no"?>
<svg xmlns:rdf="http://www.w3.org/1999/02/22-rdf-syntax-ns#" xmlns="http://www.w3.org/2000/svg" height="26" width="26" version="1.1" xmlns:cc="http://creativecommons.org/ns#" xmlns:dc="http://purl.org/dc/elements/1.1/" viewBox="0 0 26 26">
 <g transform="translate(0 -1026.4)">
  <g stroke="#0b3142" fill="none">
   <path stroke-linejoin="bevel" d="m25.004 1039.4a12.004 12.004 0 0 1 -12.004 12.004 12.004 12.004 0 0 1 -12.004 -12.004 12.004 12.004 0 0 1 12.004 -12.004 12.004 12.004 0 0 1 12.004 12.004z"/>
   <g stroke-linecap="round" stroke-width=".8">
    <path d="m6.2541 1046.4h14.386"/>
    <path d="m12.5 1043.9h8.1716"/>
    <path d="m14.977 1041.5h5.6688"/>
   </g>
   <path d="m17.483 1032.4-10.121 10.11-0.92467 3.3498 2.8347-1.3507 10.181-10.197 0.0087-0.9793-0.92234-0.9399z"/>
  </g>
  <path d="m6.9517 1043.6 1.535 1.3665c-0.20901 0.1901-0.96767 0.5392-1.73 1.0226z" fill-rule="evenodd" fill="#0b3142"/>
 </g>
</svg>
